HIERARCHY
ROOT Hips
{
	OFFSET 0.000000 0.000000 0.000000
	CHANNELS 6 Xposition Yposition Zposition Zrotation Yrotation Xrotation 
	JOINT LowerBack
	{
		OFFSET 0.000000 0.000000 0.000000
		CHANNELS 3 Zrotation Yrotation Xrotation
		JOINT Spine
		{
			OFFSET 0.028270 2.035590 -0.193380
			CHANNELS 3 Zrotation Yrotation Xrotation
			JOINT Spine1
			{
				OFFSET 0.056720 2.048850 -0.042750
				CHANNELS 3 Zrotation Yrotation Xrotation
				JOINT Neck
				{
					OFFSET 0.000000 0.000000 0.000000
					CHANNELS 3 Zrotation Yrotation Xrotation
					JOINT Neck1
					{
						OFFSET -0.054170 1.746240 0.172020
						CHANNELS 3 Zrotation Yrotation Xrotation
						JOINT Head
						{
							OFFSET 0.104070 1.761360 -0.123970
							CHANNELS 3 Zrotation Yrotation Xrotation
							End Site
							{
								OFFSET 0.000000 0.000000 0.000000
							}
						}
					}
				}
				JOINT LeftShoulder
				{
					OFFSET 0.000000 0.000000 0.000000
					CHANNELS 3 Zrotation Yrotation Xrotation
					JOINT LeftArm
					{
						OFFSET 3.362410 1.200890 -0.311210
						CHANNELS 3 Zrotation Yrotation Xrotation
						JOINT LeftForeArm
						{
							OFFSET 4.983000 -0.000000 -0.000000
							CHANNELS 3 Zrotation Yrotation Xrotation
							JOINT LeftHand
							{
								OFFSET 3.483560 -0.000000 -0.000000
								CHANNELS 3 Zrotation Yrotation Xrotation
								JOINT LeftFingerBase
								{
									OFFSET 0.000000 0.000000 0.000000
									CHANNELS 3 Zrotation Yrotation Xrotation
									JOINT LeftHandIndex1
									{
										OFFSET 0.715260 -0.000000 -0.000000
										CHANNELS 3 Zrotation Yrotation Xrotation
										End Site
										{
											OFFSET 0.000000 0.000000 0.000000
										}
									}
								}
								JOINT LThumb
								{
									OFFSET 0.000000 0.000000 0.000000
									CHANNELS 3 Zrotation Yrotation Xrotation
									End Site
									{
										OFFSET 0.000000 0.000000 0.000000
									}
								}
							}
						}
					}
				}
				JOINT RightShoulder
				{
					OFFSET 0.000000 0.000000 0.000000
					CHANNELS 3 Zrotation Yrotation Xrotation
					JOINT RightArm
					{
						OFFSET -3.136600 1.374050 -0.404650
						CHANNELS 3 Zrotation Yrotation Xrotation
						JOINT RightForeArm
						{
							OFFSET -5.241900 -0.000000 -0.000000
							CHANNELS 3 Zrotation Yrotation Xrotation
							JOINT RightHand
							{
								OFFSET -3.444170 -0.000000 -0.000000
								CHANNELS 3 Zrotation Yrotation Xrotation
								JOINT RightFingerBase
								{
									OFFSET 0.000000 0.000000 0.000000
									CHANNELS 3 Zrotation Yrotation Xrotation
									JOINT RightHandIndex1
									{
										OFFSET -0.622530 -0.000000 -0.000000
										CHANNELS 3 Zrotation Yrotation Xrotation
										End Site
										{
											OFFSET 0.000000 0.000000 0.000000
										}
									}
								}
								JOINT RThumb
								{
									OFFSET 0.000000 0.000000 0.000000
									CHANNELS 3 Zrotation Yrotation Xrotation
									End Site
									{
										OFFSET 0.000000 0.000000 0.000000
									}
								}
							}
						}
					}
				}
			}
		}
	}
}
}
MOTION
Frames: 7
Frame Time: 0.008333
8.190457 16.232316 1.369758 19.311572 66.652111 19.290149 -4.777252 -4.121064 1.590233 -1.384706 -3.841572 -1.788557 -5.671751 -3.798497 3.477718 11.306874 -16.500914 -11.857586 -2.792045 -0.152713 -1.158038 0.000000 0.000000 0.000000 1.839497 19.474171 0.735996 -65.327317 -2.644284 -9.786633 -2.945918 -31.858656 -0.013737 16.445783 -2.792220 -0.419623 -0.181283 0.085113 0.000000 0.000000 0.000000 0.000000 0.000000 0.000000 0.000000 18.183357 -14.731953 0.048080 78.349878 -7.436357 -23.808895 3.126965 12.721719 0.003697 -8.867157 4.609411 -0.367600 0.147100 -0.056735 -0.000000 0.000000 0.000000 0.000000 0.000000 0.000000 0.000000 
8.417521 16.323277 1.475280 18.175996 66.376621 18.211587 -4.188097 -4.330001 1.169007 -1.251659 -4.094489 -1.827263 -5.616504 -4.051960 3.575569 11.201808 -17.146422 -11.896931 -2.787060 -0.152297 -1.156833 0.000000 0.000000 0.000000 2.077520 19.528369 0.648232 -63.941742 -2.490555 -10.870244 -2.813118 -34.783713 -0.018508 16.733146 -2.534053 -0.390851 -0.191337 0.099457 0.000000 0.000000 0.000000 0.000000 0.000000 0.000000 0.000000 18.373238 -15.548583 -0.014076 78.689241 -9.411660 -22.611794 3.282585 12.673328 0.004593 -7.805724 4.038817 -0.283807 0.147046 -0.046813 -0.000000 0.000000 0.000000 0.000000 0.000000 0.000000 0.000000 
8.646960 16.421510 1.585085 16.935545 66.122750 17.017784 -3.552495 -4.544198 0.735149 -1.103304 -4.356628 -1.871174 -5.546656 -4.315726 3.667209 11.080174 -17.832781 -11.921671 -2.765697 -0.150826 -1.151076 0.000000 0.000000 0.000000 2.228886 19.619621 0.558770 -62.466189 -2.167647 -11.546678 -2.662951 -37.849409 -0.023824 16.933447 -2.078603 -0.329170 -0.201804 0.113162 0.000000 0.000000 0.000000 0.000000 0.000000 0.000000 0.000000 18.478927 -16.388574 -0.084676 78.901368 -11.421540 -21.183695 3.454957 12.835870 0.005327 -6.490853 3.536176 -0.206911 0.145219 -0.037249 -0.000000 0.000000 0.000000 0.000000 0.000000 0.000000 0.000000 
8.877463 16.525875 1.699178 15.608242 65.890057 15.718470 -2.885614 -4.760358 0.303934 -0.942886 -4.624038 -1.918656 -5.465540 -4.585669 3.750151 10.948577 -18.543149 -11.930720 -2.730991 -0.148549 -1.141055 0.000000 0.000000 0.000000 2.303066 19.737852 0.468266 -60.900858 -1.723918 -11.894115 -2.498816 -40.974787 -0.029502 17.072901 -1.509671 -0.247486 -0.212283 0.126251 0.000000 0.000000 0.000000 0.000000 0.000000 0.000000 0.000000 18.510779 -17.234658 -0.160188 78.997190 -13.440915 -19.659130 3.637493 13.156327 0.005782 -4.971993 3.102650 -0.139516 0.141471 -0.028195 -0.000000 0.000000 0.000000 0.000000 0.000000 0.000000 0.000000 
9.107767 16.634872 1.817559 14.217557 65.678007 14.331559 -2.206566 -4.975576 -0.112363 -0.774516 -4.892736 -1.967657 -5.375739 -4.857611 3.824636 10.813383 -19.266325 -11.925081 -2.684876 -0.145584 -1.127543 0.000000 0.000000 0.000000 2.319051 19.880538 0.376618 -59.258073 -1.213950 -11.987864 -2.325043 -44.083919 -0.035361 17.171167 -0.907879 -0.158898 -0.222415 0.138942 0.000000 0.000000 0.000000 0.000000 0.000000 0.000000 0.000000 18.478621 -18.077241 -0.237414 78.994351 -15.439809 -18.161946 3.824006 13.576057 0.005874 -3.315451 2.721497 -0.082322 0.135994 -0.019700 -0.000000 0.000000 0.000000 0.000000 0.000000 0.000000 0.000000 
9.336634 16.746874 1.940278 12.788356 65.485439 12.879925 -1.534760 -5.187087 -0.505271 -0.602781 -5.158698 -2.016906 -5.280175 -5.127396 3.889680 10.679342 -19.983402 -11.903929 -2.630272 -0.142162 -1.110717 0.000000 0.000000 0.000000 2.302290 20.039343 0.283876 -57.560441 -0.675371 -11.898945 -2.145873 -47.123234 -0.041250 17.244743 -0.339760 -0.074310 -0.231885 0.151545 0.000000 0.000000 0.000000 0.000000 0.000000 0.000000 0.000000 18.393355 -18.899191 -0.313090 78.917549 -17.400698 -16.806718 4.009307 14.042841 0.005542 -1.594391 2.364862 -0.035432 0.129228 -0.011719 -0.000000 0.000000 0.000000 0.000000 0.000000 0.000000 0.000000 
9.562873 16.859826 2.067549 11.367889 65.312047 11.411114 -0.899298 -5.393893 -0.871148 -0.433989 -5.418880 -2.065079 -5.179706 -5.391972 3.946685 10.549861 -20.682585 -11.868047 -2.568136 -0.138307 -1.091061 0.000000 0.000000 0.000000 2.287683 20.209933 0.189530 -55.842052 -0.143174 -11.685348 -1.965605 -50.046905 -0.047079 17.306585 0.143411 -0.002025 -0.240512 0.164525 -0.000000 0.000000 0.000000 0.000000 0.000000 0.000000 0.000000 18.261000 -19.692826 -0.383990 78.799753 -19.302645 -15.698751 4.189453 14.502341 0.004755 0.119307 1.995252 0.000254 0.121793 -0.004149 -0.000000 0.000000 0.000000 0.000000 0.000000 0.000000 0.000000 
